<svg xmlns="http://www.w3.org/2000/svg" viewBox="0 0 256 256" role="img" aria-labelledby="WeaveLogoTitle">
    <title id="WeaveLogoTitle">「weave」のロゴマーク</title>
    <g stroke="none">
        <path fill="#e84220"
            d="M 129.59 0.0067 c 0 0 7.2766 45.6587 -9.5915 66.3575 c -16.8671 20.6984 -68.792 69.7053 -68.792 69.7053 c 0 0 -8.9297 11.8716 14.2214 36.5273 c 0 0 -5.9532 -19.2777 12.3473 -29.4251 c 18.3007 -10.1454 63.28 -34.294 62.3985 -35.1059 c -0.8826 -0.8118 30.4271 -5.885 9.7011 -57.8347 c -20.726 -51.9493 -20.2848 -50.2245 -20.2848 -50.2245 z M 110.3671 184.1636 c 0 0 -28.4087 -0.8796 -34.1044 -14.8809 c -5.6957 -14.0023 39.6268 -32.6046 39.6268 -32.6046 l 15.9407 -7.3055 c 0 0 53.9692 -32.8737 31.4651 -75.4887 l 18.0764 34.0918 c 0 0 12.034 26.0259 -9.3774 43.3762 c -21.4104 17.3502 -37.0393 26.4816 -37.0393 26.4816 c 0 0 -36.3959 15.1687 -24.588 26.3301 z M 168.4641 198.6162 c 0 0 -7.9549 -8.7568 -24.0939 -11.1455 c -16.138 -2.3877 -28.6391 -8.188 2.8798 -18.0445 c 31.5189 -9.8565 43.9443 -36.3351 49.7019 -40.7319 c 5.7585 -4.3978 2.804 -17.6281 -6.2884 -25.1338 c 0 0 35.9137 27.4079 22.0479 38.2117 l -28.2138 25.3709 c 0 0 -30.3534 18.7358 -16.0334 31.4731 z M 41.1966 147.7349 c 0 0 5.3979 27.2934 37.5397 34.8021 c 32.1418 7.5087 64.0383 11.9722 64.0383 11.9722 c 0 0 52.7519 10.1474 16.9299 50.5296 c 0 0 12.5131 -12.1754 -21.3466 -28.41 c 0 0 -19.6283 -7.5087 -49.5617 -9.9432 c -29.9338 -2.4355 -47.5995 -58.9507 -47.5995 -58.9507 z" />
        <path fill="#dad8e5"
            d="M 63.7554 202.7311 c 0 0 24.2905 10.3496 44.1642 12.6317 c 19.8744 2.2831 36.9875 9.5885 40.6681 19.6343 c 3.6806 10.0448 -20.2419 21.003 -20.2419 21.003 c 0 0 12.3288 -10.1972 4.9686 -19.6333 c -7.3612 -9.4361 -69.559 -33.6356 -69.559 -33.6356 z M 98.6691 141.6397 c 0 0 3.6983 26.0184 40.5772 35.8131 c 36.8789 9.7947 35.9575 12.79 35.9575 12.79 c 0 0 23.7313 5.9567 10.1922 36.6787 c 0 0 20.6025 -27.5315 3.8639 -48.9797 c -16.7386 -21.4492 -86.4702 -11.9822 -90.5908 -36.3022 z M 135.7888 81.4081 c 0 0 -7.0236 48.363 13.3787 60.657 c 20.4033 12.294 26.7913 14.5462 26.7913 14.5462 c 0 0 25.0223 13.0809 22.5449 31.4272 c 0 0 15.105 -27.381 -15.355 -46.5352 c -30.459 -19.1532 -47.0094 -19.0068 -47.36 -60.0952 z M 212.1515 152.9047 c 0 0 0.6066 -13.4823 -9.7151 -23.6964 c -10.3207 -10.2141 -22.7999 -24.9236 -10.5956 -49.926 c 0 0 -25.4665 36.5841 -3.316 52.1951 c 0 0 6.5106 3.8788 8.1621 4.0751 c 1.6515 0.1962 14.0661 9.985 15.4646 17.3522 z" />
    </g>
</svg>
